<svg width="24" height="24" viewBox="0 0 24 24" fill="none" xmlns="http://www.w3.org/2000/svg">
<path fill-rule="evenodd" clip-rule="evenodd" d="M22.5365 12.0308C22.5365 17.8352 17.8192 22.5406 12 22.5406C6.18077 22.5406 1.46338 17.8352 1.46338 12.0308C1.46338 6.22631 6.18077 1.52087 12 1.52087C17.8192 1.52087 22.5365 6.22631 22.5365 12.0308ZM10.5101 3.96614C10.9984 4.12408 11.366 3.89629 11.5004 3.48278L11.7284 2.78125C11.8629 2.36775 11.6992 1.96816 11.2166 1.81206C10.7426 1.65874 10.3748 1.8581 10.232 2.29727L10.004 2.9988C9.86123 3.43797 10.0417 3.81467 10.5101 3.96614ZM10.6604 3.52312C10.4891 3.4677 10.4273 3.33741 10.4903 3.14349L10.711 2.46477C10.7749 2.268 10.8978 2.2006 11.072 2.25694C11.2434 2.31236 11.3052 2.44265 11.2421 2.63657L11.0215 3.31528C10.9575 3.51205 10.8346 3.57946 10.6604 3.52312ZM9.74916 7.85022C9.54058 8.23192 9.13721 8.38821 8.68649 8.14316C8.25423 7.90814 8.14648 7.50469 8.36801 7.0993L8.72189 6.45172C8.94342 6.04632 9.34174 5.91802 9.77928 6.15591C10.2247 6.3981 10.3116 6.82094 10.103 7.20264L9.74916 7.85022ZM8.81921 7.33095C8.72139 7.50996 8.75803 7.64938 8.91617 7.73537C9.07696 7.82278 9.21021 7.77914 9.30947 7.5975L9.65183 6.97098C9.74965 6.79198 9.71302 6.65255 9.55487 6.56657C9.39409 6.47915 9.26084 6.5228 9.16158 6.70443L8.81921 7.33095ZM8.37249 10.1105L8.01004 9.88669L8.89592 8.45911C8.91174 8.43361 8.90847 8.41044 8.88294 8.39468L8.65832 8.256C8.62746 8.23694 8.59831 8.2321 8.56016 8.22576H8.56015L8.54137 8.22258L7.8349 8.10373C7.80304 8.09817 7.7837 8.11796 7.77712 8.14564L7.70909 8.50559C7.70348 8.53739 7.71916 8.55764 7.74687 8.56418L8.19889 8.64933L7.59143 9.62824L7.20855 9.39185C7.18558 9.37767 7.15858 9.39273 7.14909 9.40803L6.94977 9.72924C6.94027 9.74453 6.9388 9.77535 6.96177 9.78954L8.12571 10.5082C8.14868 10.5223 8.17568 10.5073 8.18518 10.492L8.3845 10.1708C8.39399 10.1555 8.39547 10.1247 8.37249 10.1105ZM6.93656 11.7965C6.65601 12.1292 6.22954 12.2023 5.8367 11.8726C5.45995 11.5565 5.43483 11.1397 5.73279 10.7864L6.20876 10.2221C6.50672 9.86875 6.92268 9.82209 7.30403 10.1421C7.69226 10.4678 7.69308 10.8995 7.41253 11.2321L6.93656 11.7965ZM6.12877 11.103C5.9972 11.259 6.00529 11.4029 6.14313 11.5186C6.28326 11.6362 6.42256 11.6199 6.55606 11.4616L7.01655 10.9155C7.14812 10.7595 7.14003 10.6156 7.00219 10.5C6.86206 10.3824 6.72276 10.3987 6.58926 10.557L6.12877 11.103ZM5.19815 13.9064L4.87194 13.6327L5.95544 12.3479C5.97479 12.325 5.97491 12.3016 5.95194 12.2823L5.74978 12.1127C5.72201 12.0894 5.69387 12.0804 5.65704 12.0686L5.65703 12.0686L5.6389 12.0627L4.95707 11.8432C4.92636 11.8331 4.90435 11.8499 4.89383 11.8763L4.77434 12.2227C4.76418 12.2533 4.77676 12.2756 4.80324 12.2861L5.23816 12.4356L4.49519 13.3165L4.1506 13.0274C4.12992 13.01 4.10102 13.0211 4.08941 13.0348L3.84563 13.3239C3.83402 13.3376 3.82809 13.3679 3.84876 13.3853L4.89632 14.2643C4.917 14.2816 4.9459 14.2706 4.9575 14.2569L5.20129 13.9678C5.2129 13.954 5.21883 13.9237 5.19815 13.9064ZM3.5096 15.6803C3.15802 15.9371 2.72635 15.9071 2.42305 15.4939C2.13217 15.0976 2.20679 14.6868 2.5802 14.4141L3.17668 13.9785C3.55009 13.7058 3.96526 13.759 4.25969 14.1601C4.55944 14.5685 4.45767 14.988 4.10608 15.2448L3.5096 15.6803ZM2.88965 14.8154C2.72477 14.9358 2.69843 15.0775 2.80485 15.2225C2.91305 15.3699 3.05225 15.387 3.21955 15.2649L3.79664 14.8434C3.96152 14.723 3.98785 14.5813 3.88143 14.4363C3.77324 14.2889 3.63404 14.2718 3.46673 14.394L2.88965 14.8154ZM10.6579 5.97585L10.2719 5.79546L10.986 4.27513C10.9987 4.24798 10.9928 4.22534 10.9656 4.21264L10.7264 4.10085C10.6935 4.08548 10.664 4.08404 10.6254 4.08215L10.6063 4.08116L9.89082 4.04475C9.85854 4.0429 9.84163 4.06479 9.8383 4.09304L9.81254 4.45843C9.81066 4.49066 9.82858 4.50897 9.85687 4.51226L10.3157 4.54461L9.82605 5.58711L9.4183 5.39655C9.39383 5.38512 9.36877 5.4032 9.36111 5.41949L9.20044 5.76157C9.19279 5.77785 9.1949 5.80864 9.21937 5.82007L10.4589 6.39937C10.4834 6.4108 10.5085 6.39272 10.5161 6.37643L10.6768 6.03436C10.6845 6.01807 10.6823 5.98728 10.6579 5.97585ZM19.1372 8.61547C18.8237 8.91672 18.7789 9.34682 19.134 9.71743C19.4745 10.0729 19.8922 10.0711 20.2252 9.75113L20.7571 9.24004C21.0901 8.92008 21.1091 8.50218 20.7645 8.14241C20.4136 7.77613 19.9826 7.80311 19.6691 8.10437L19.1372 8.61547ZM19.8829 9.37655C19.7359 9.51783 19.5917 9.51902 19.4671 9.38898C19.3405 9.25678 19.3475 9.11679 19.4967 8.97343L20.0114 8.47895C20.1584 8.33768 20.3026 8.33648 20.4272 8.46652C20.5538 8.59872 20.5467 8.73872 20.3975 8.88207L19.8829 9.37655ZM16.1699 13.1797C15.7528 12.8809 15.7176 12.4498 15.9702 12.0956L16.3987 11.4948C16.6513 11.1407 17.0697 11.0345 17.4819 11.3298C17.8867 11.6199 17.9449 12.0343 17.6767 12.4104L17.2482 13.0112C16.9799 13.3873 16.5699 13.4662 16.1699 13.1797ZM16.4367 12.7952C16.5831 12.9 16.7245 12.8722 16.843 12.7061L17.2575 12.1249C17.3777 11.9564 17.3589 11.8174 17.2101 11.7108C17.0638 11.606 16.9224 11.6338 16.8039 11.7999L16.3893 12.3811C16.2692 12.5497 16.288 12.6886 16.4367 12.7952ZM14.8957 14.5486L14.5363 14.32C14.5135 14.3055 14.4864 14.3203 14.4768 14.3355L14.2746 14.6549C14.265 14.6701 14.2632 14.701 14.286 14.7155L15.4402 15.4497C15.463 15.4641 15.4901 15.4494 15.4997 15.4342L15.7019 15.1147C15.7115 15.0995 15.7133 15.0687 15.6905 15.0542L15.3108 14.8127L15.927 13.8392L16.2007 14.2089C16.2186 14.231 16.2437 14.2362 16.2699 14.2173L16.5641 13.9992C16.5862 13.9812 16.5955 13.9551 16.5767 13.9289L16.1617 13.3449L16.1506 13.3294C16.1283 13.2978 16.1112 13.2737 16.0806 13.2542L15.8579 13.1126C15.8326 13.0965 15.8103 13.1036 15.7942 13.129L14.8957 14.5486ZM14.056 17.3704C13.5881 17.1605 13.4679 16.7449 13.645 16.3474L13.9454 15.6729C14.1224 15.2754 14.5112 15.088 14.9737 15.2953C15.4279 15.499 15.5673 15.8937 15.3792 16.3159L15.0788 16.9903C14.8908 17.4125 14.5048 17.5716 14.056 17.3704ZM14.241 16.9402C14.4052 17.0139 14.5383 16.9584 14.6213 16.772L14.9119 16.1195C14.9962 15.9303 14.9501 15.7979 14.7832 15.723C14.619 15.6494 14.486 15.7049 14.4029 15.8913L14.1123 16.5438C14.0281 16.7329 14.0741 16.8654 14.241 16.9402ZM12.8927 19.006L12.5041 18.8317C12.4795 18.8207 12.4548 18.8392 12.4475 18.8557L12.2936 19.2011C12.2863 19.2175 12.289 19.2484 12.3136 19.2594L13.5614 19.8189C13.586 19.83 13.6107 19.8114 13.618 19.795L13.7719 19.4495C13.7792 19.4331 13.7765 19.4023 13.7519 19.3912L13.3414 19.2072L13.8104 18.1545L14.1345 18.4807C14.1555 18.5 14.181 18.5016 14.2042 18.4791L14.4638 18.2205C14.483 18.1995 14.4885 18.1724 14.466 18.1492L13.9712 17.6313L13.958 17.6175C13.9313 17.5895 13.911 17.5681 13.8779 17.5532L13.6371 17.4453C13.6097 17.433 13.5887 17.4433 13.5765 17.4707L12.8927 19.006ZM12.2853 22.0213C11.7812 21.9285 11.5661 21.5531 11.6438 21.1248L11.7758 20.398C11.8536 19.9697 12.1867 19.6952 12.6849 19.7869C13.1743 19.877 13.4032 20.2275 13.3206 20.6824L13.1886 21.4091C13.106 21.864 12.7688 22.1103 12.2853 22.0213ZM12.3631 21.5594C12.54 21.592 12.6561 21.5065 12.6925 21.3056L12.8202 20.6025C12.8572 20.3987 12.7811 20.2809 12.6013 20.2478C12.4244 20.2152 12.3083 20.3007 12.2719 20.5016L12.1442 21.2047C12.1072 21.4085 12.1833 21.5263 12.3631 21.5594ZM17.5915 10.7294L17.2609 10.4606C17.2399 10.4436 17.2113 10.4551 17.2 10.4691L16.9622 10.7628C16.9508 10.7768 16.9455 10.8073 16.9665 10.8243L18.0282 11.6873C18.0492 11.7043 18.0778 11.6928 18.0891 11.6788L18.3269 11.3851C18.3383 11.3711 18.3436 11.3407 18.3226 11.3236L17.9734 11.0397L18.6981 10.1445L18.9273 10.5434C18.9426 10.5674 18.9668 10.5756 18.995 10.5598L19.3126 10.3773C19.3366 10.362 19.3489 10.3372 19.3332 10.309L18.9885 9.68094C18.9853 9.67516 18.9822 9.66961 18.9793 9.66426C18.9607 9.6303 18.9466 9.60437 18.9184 9.58148L18.7135 9.41494C18.6902 9.39602 18.6673 9.40054 18.6484 9.42385L17.5915 10.7294Z" fill="white"/>
</svg>
