<svg width="24" height="24" viewBox="0 0 24 24" fill="none" xmlns="http://www.w3.org/2000/svg">
<path d="M6.682 5H4.288C4.108 5 4 5.108 4 5.288V18.482C4 18.662 4.108 18.77 4.288 18.77H6.682C6.826 18.77 6.952 18.662 6.952 18.482V12.776C7.222 11.84 7.834 11.282 8.608 11.282C9.364 11.282 9.742 11.804 9.742 12.632L9.76 18.482C9.76 18.662 9.868 18.77 10.048 18.77H12.424C12.55 18.77 12.694 18.734 12.694 18.482L12.712 12.128C12.712 10.022 11.65 8.6 9.778 8.6C8.428 8.6 7.51 9.356 6.952 10.166V5.288C6.952 5.108 6.844 5 6.682 5Z" fill="white"/>
<path d="M17.2935 11.33C15.7135 11.33 15.0035 12.21 14.7435 13.27C14.7135 13.41 14.7535 13.51 14.8735 13.54L16.0335 13.88C16.1735 13.92 16.2535 13.87 16.2835 13.74C16.4135 13.28 16.6435 12.89 17.2435 12.89C17.7735 12.89 18.1235 13.2 18.1335 13.74C18.1435 14.28 17.8335 14.65 16.8135 15.52L14.7935 17.25C14.7335 17.35 14.7135 17.43 14.7335 17.54L14.9335 18.63C14.9535 18.73 15.0235 18.77 15.1335 18.77H19.7335C19.8435 18.77 19.8935 18.7 19.8935 18.61V17.37C19.8935 17.28 19.8435 17.21 19.7335 17.21H17.0135L18.1935 16.31C19.2035 15.53 19.8535 14.81 19.8435 13.63C19.8335 12.29 18.8935 11.33 17.2935 11.33Z" fill="white"/>
</svg>
