<svg width="24" height="24" viewBox="0 0 24 24" fill="none" xmlns="http://www.w3.org/2000/svg">
<path d="M12.1637 18.5102L12.5996 18.2654L12.1637 18.5102ZM11.5781 19.9582L11.4349 19.4791L11.5781 19.9582ZM11.4389 6.249L11.7865 6.6084L11.4389 6.249ZM12.1637 5.48976L12.5996 5.73464L12.1637 5.48976ZM11.5781 4.04183L11.4349 4.52092L11.5781 4.04183ZM9.5 12C9.5 9.88358 10.376 7.97262 11.7865 6.6084L11.0913 5.8896C9.49403 7.43443 8.5 9.60156 8.5 12H9.5ZM11.7865 17.3916C10.376 16.0274 9.5 14.1164 9.5 12H8.5C8.5 14.3984 9.49403 16.5656 11.0913 18.1104L11.7865 17.3916ZM11 19.5C6.85786 19.5 3.5 16.1421 3.5 12H2.5C2.5 16.6944 6.30558 20.5 11 20.5V19.5ZM3.5 12C3.5 7.85786 6.85786 4.5 11 4.5V3.5C6.30558 3.5 2.5 7.30558 2.5 12H3.5ZM11.0913 18.1104C11.3115 18.3234 11.4681 18.4749 11.5792 18.5893C11.7006 18.7141 11.7282 18.7558 11.7278 18.7551L12.5996 18.2654C12.5277 18.1372 12.4106 18.0099 12.2963 17.8923C12.1718 17.7642 12.0017 17.5998 11.7865 17.3916L11.0913 18.1104ZM11 20.5C11.264 20.5 11.4952 20.5048 11.7212 20.4373L11.4349 19.4791C11.3808 19.4952 11.32 19.5 11 19.5V20.5ZM11.7278 18.7551C11.8846 19.0344 11.7418 19.3874 11.4349 19.4791L11.7212 20.4373C12.6422 20.1621 13.0704 19.1034 12.5996 18.2654L11.7278 18.7551ZM11.7865 6.6084C12.0017 6.40021 12.1718 6.23583 12.2963 6.10769C12.4106 5.99011 12.5277 5.86275 12.5996 5.73464L11.7278 5.24488C11.7282 5.2442 11.7006 5.28585 11.5792 5.41074C11.4681 5.52507 11.3115 5.67658 11.0913 5.8896L11.7865 6.6084ZM11 4.5C11.32 4.5 11.3808 4.50475 11.4349 4.52092L11.7212 3.56275C11.4952 3.49525 11.264 3.5 11 3.5V4.5ZM12.5996 5.73464C13.0704 4.89659 12.6422 3.83785 11.7212 3.56275L11.4349 4.52092C11.7418 4.61259 11.8846 4.96563 11.7278 5.24488L12.5996 5.73464Z" fill="white"/>
</svg>
