<svg width="24" height="24" viewBox="0 0 24 24" fill="none" xmlns="http://www.w3.org/2000/svg">
<path fill-rule="evenodd" clip-rule="evenodd" d="M21 15.9863C21 14.114 21 13.1779 20.4218 12.5934L20.4066 12.5782C19.8221 12 18.886 12 17.0137 12H16.8241C14.1262 12 12.7772 12 11.7547 11.2986C11.6556 11.2307 11.5596 11.1583 11.4671 11.0817L12.7421 9.54084C12.7884 9.57914 12.8364 9.61533 12.8859 9.64931C13.0245 9.74437 13.2564 9.85619 13.8784 9.92416C14.547 9.99723 15.4311 10 16.8241 10H17.0137L17.1217 9.99999C17.9639 9.99982 18.7824 9.99966 19.4579 10.0899C19.9494 10.1555 20.4861 10.282 21 10.5568V9C21 7.89543 20.1046 7 19 7H11.6547C11.8646 7.71304 12.033 8.23965 12.2052 8.66209C12.4414 9.24149 12.6127 9.4337 12.7421 9.54084L11.4671 11.0817C10.5118 10.2911 10.1412 8.9941 9.4 6.4C9.21471 5.75148 9.12206 5.42721 8.88324 5.22958C8.86009 5.21043 8.8361 5.19233 8.81133 5.17534C8.55569 5 8.21845 5 7.54398 5H5C3.89543 5 3 5.89543 3 7V17C3 18.1046 3.89543 19 5 19H19C20.1046 19 21 18.1046 21 17V15.9863Z" fill="white"/>
</svg>
