<svg width="24" height="24" viewBox="0 0 24 24" fill="none" xmlns="http://www.w3.org/2000/svg">
<path fill-rule="evenodd" clip-rule="evenodd" d="M8.60757 3H8.0172C6.56498 3 5.83888 3 5.30421 3.4033C4.76954 3.80661 4.57006 4.50478 4.1711 5.90112L3.57142 8H7.67007L8.60757 3ZM3.11736 9.92418C3.11965 9.94086 3.12251 9.95744 3.12592 9.97399C3.17565 10.2147 3.33796 10.4131 3.66258 10.8098L3.66258 10.8098L9.40848 17.8326L7.6951 10H3.49999C3.36446 10 3.23522 9.97304 3.11736 9.92418ZM14.5915 17.8326L20.3374 10.8098C20.662 10.4131 20.8243 10.2147 20.8741 9.97399C20.8775 9.95744 20.8803 9.94086 20.8826 9.92418C20.7648 9.97304 20.6355 10 20.5 10H16.3049L14.5915 17.8326ZM20.4286 8L19.8289 5.90112C19.4299 4.50478 19.2305 3.80661 18.6958 3.4033C18.1611 3 17.435 3 15.9828 3H15.3924L16.3299 8H20.4286ZM13.3576 3H10.6424L9.70492 8H14.2951L13.3576 3ZM12 20.3205L9.74239 10H14.2576L12 20.3205Z" fill="white"/>
</svg>
