<svg width="239" height="55" viewBox="0 0 239 55" fill="none" xmlns="http://www.w3.org/2000/svg">
<path d="M4.00002 55C1.79088 55 2.43907e-05 53.2091 1.71028e-05 51L-4.06598e-07 45.6925C-8.36566e-05 20.4572 20.4571 2.38405e-06 45.6924 1.28098e-06L51 1.04897e-06C53.2091 9.5241e-07 55 1.79086 55 4L55 51C55 53.2091 53.2091 55 51 55L4.00002 55Z" fill="url(#paint0_linear)"/>
<path fill-rule="evenodd" clip-rule="evenodd" d="M23 19C20.7909 19 19 20.7909 19 23L19 45C19 47.2091 20.7909 49 23 49L45 49C47.2091 49 49 47.2091 49 45L49 23C49 20.7909 47.2091 19 45 19L23 19ZM27 23C24.7909 23 23 24.7909 23 27L23 41C23 43.2091 24.7909 45 27 45L41 45C43.2091 45 45 43.2091 45 41L45 27C45 24.7909 43.2091 23 41 23L27 23Z" fill="white"/>
<path d="M78.5438 13.864H75.3278C74.8478 13.864 74.6558 14.056 74.6558 14.44V48.424C74.6558 48.808 74.8478 49 75.2798 49H93.4718C93.8558 49 94.0478 48.76 94.0478 48.424V45.4C94.0478 45.016 93.9038 44.776 93.4718 44.776H79.1678V14.44C79.1678 14.056 79.0238 13.864 78.5438 13.864Z" fill="#0085FF"/>
<path d="M115.628 37.24C116.492 37.24 116.876 36.856 116.876 36.088V32.248C116.876 26.344 113.324 22.168 106.652 22.12C99.8355 22.168 96.1875 26.344 96.1875 32.296V39.352C96.1875 45.4 99.9315 49.48 106.796 49.528C111.788 49.528 115.1 47.416 116.54 44.104C116.78 43.624 116.732 43.288 116.156 43.048L114.092 41.992C113.564 41.752 113.324 41.752 113.036 42.328C112.076 44.344 110.684 45.832 106.844 45.832C102.668 45.784 100.412 43.528 100.412 39.352V37.24H115.628ZM106.604 25.768C110.492 25.816 112.796 28.12 112.796 32.2V34.168H100.412V32.2C100.412 28.12 102.716 25.816 106.604 25.768Z" fill="#0085FF"/>
<path d="M133.608 12.568H131.112C126.36 12.568 123.72 15.112 123.72 19.864V22.792H119.976C119.64 22.792 119.496 23.032 119.496 23.32V25.864C119.496 26.2 119.64 26.44 119.976 26.44H123.72V48.472C123.72 48.856 124.008 49 124.344 49H127.512C127.8 49 128.088 48.856 128.088 48.472V26.44H136.676C137.012 26.44 137.204 26.248 137.204 25.864V23.32C137.204 23.032 137.06 22.792 136.724 22.792H128.088V19.72C128.088 17.272 129.192 16.168 131.784 16.168H133.704C134.088 16.168 134.28 15.976 134.28 15.592V13.144C134.28 12.808 134.136 12.568 133.608 12.568Z" fill="#0085FF"/>
<path d="M143.163 15.88H140.187C139.707 15.88 139.563 16.12 139.563 16.456V22.792H135.915C135.579 22.792 135.387 22.984 135.387 23.464V25.816C135.387 26.248 135.579 26.44 135.915 26.44H139.515V42.28C139.515 46.456 142.107 49 146.811 49H149.355C149.787 49 149.979 48.808 149.979 48.376V45.688C149.979 45.256 149.739 45.112 149.355 45.112H147.435C145.035 45.112 143.787 44.008 143.787 41.656V26.44H149.403C149.787 26.44 149.979 26.248 149.979 25.816V23.464C149.979 22.984 149.787 22.792 149.403 22.792H143.787V16.456C143.787 16.12 143.643 15.88 143.163 15.88Z" fill="#0085FF"/>
<path d="M165.721 12.568H163.225C158.473 12.568 155.833 15.112 155.833 19.864V22.792H152.089C151.753 22.792 151.609 23.032 151.609 23.32V25.864C151.609 26.2 151.753 26.44 152.089 26.44H155.833V48.472C155.833 48.856 156.121 49 156.457 49H159.625C159.913 49 160.201 48.856 160.201 48.472V26.44H165.865C166.201 26.44 166.393 26.248 166.393 25.864V23.32C166.393 23.032 166.249 22.792 165.913 22.792H160.201V19.72C160.201 17.272 161.305 16.168 163.897 16.168H165.817C166.201 16.168 166.393 15.976 166.393 15.592V13.144C166.393 12.808 166.249 12.568 165.721 12.568ZM175.465 12.568H172.585C172.057 12.568 171.865 12.808 171.865 13.24V17.896C171.865 18.328 172.057 18.568 172.585 18.568H175.465C175.993 18.568 176.185 18.328 176.185 17.896V13.24C176.185 12.808 175.993 12.568 175.465 12.568ZM175.609 22.648H172.489C172.009 22.648 171.865 22.84 171.865 23.224V48.424C171.865 48.808 172.009 49 172.489 49H175.609C176.041 49 176.185 48.808 176.185 48.424V23.224C176.185 22.84 176.041 22.648 175.609 22.648Z" fill="#0085FF"/>
<path d="M201.041 37.24C201.905 37.24 202.289 36.856 202.289 36.088V32.248C202.289 26.344 198.737 22.168 192.065 22.12C185.249 22.168 181.601 26.344 181.601 32.296V39.352C181.601 45.4 185.345 49.48 192.209 49.528C197.201 49.528 200.513 47.416 201.953 44.104C202.193 43.624 202.145 43.288 201.569 43.048L199.505 41.992C198.977 41.752 198.737 41.752 198.449 42.328C197.489 44.344 196.097 45.832 192.257 45.832C188.081 45.784 185.825 43.528 185.825 39.352V37.24H201.041ZM192.017 25.768C195.905 25.816 198.209 28.12 198.209 32.2V34.168H185.825V32.2C185.825 28.12 188.129 25.816 192.017 25.768Z" fill="#0085FF"/>
<path d="M211.194 12.52H208.074C207.594 12.52 207.45 12.712 207.45 13.096V48.424C207.45 48.808 207.594 49 208.074 49H211.194C211.626 49 211.77 48.808 211.77 48.424V13.096C211.77 12.712 211.626 12.52 211.194 12.52Z" fill="#0085FF"/>
<path d="M226.495 49.528C230.335 49.528 233.023 47.512 234.175 45.448V48.472C234.175 48.856 234.463 49 234.751 49H237.823C238.207 49 238.447 48.856 238.447 48.472V13.096C238.447 12.76 238.207 12.568 237.919 12.568H234.607C234.271 12.568 234.079 12.76 234.079 13.096V26.248C232.927 24.184 230.287 22.168 226.351 22.168C220.783 22.168 217.231 26.152 217.231 32.2V39.544C217.231 45.592 220.783 49.48 226.495 49.528ZM227.647 45.592C223.855 45.592 221.599 43.384 221.599 38.968V32.776C221.599 28.408 223.855 26.056 227.647 26.056C231.055 26.056 234.079 28.408 234.079 32.824V38.968C234.079 43.336 231.055 45.592 227.647 45.592Z" fill="#0085FF"/>
<defs>
<linearGradient id="paint0_linear" x1="0" y1="55" x2="55" y2="3.37687e-07" gradientUnits="userSpaceOnUse">
<stop stop-color="#006DDA"/>
<stop offset="0.0806874" stop-color="#026EDA"/>
<stop offset="0.155366" stop-color="#0872DC"/>
<stop offset="0.22496" stop-color="#1077DE"/>
<stop offset="0.290394" stop-color="#1C7EE0"/>
<stop offset="0.352593" stop-color="#2986E3"/>
<stop offset="0.41248" stop-color="#378FE7"/>
<stop offset="0.470981" stop-color="#4799EB"/>
<stop offset="0.529019" stop-color="#56A2EE"/>
<stop offset="0.58752" stop-color="#66ACF2"/>
<stop offset="0.647407" stop-color="#74B5F5"/>
<stop offset="0.709606" stop-color="#81BDF8"/>
<stop offset="0.77504" stop-color="#8DC4FB"/>
<stop offset="0.844634" stop-color="#95C9FD"/>
<stop offset="0.919313" stop-color="#9BCDFF"/>
<stop offset="1" stop-color="#9DCEFF"/>
</linearGradient>
</defs>
</svg>
