<svg width="249" height="65" viewBox="0 0 249 65" fill="none" xmlns="http://www.w3.org/2000/svg">
<path d="M3.58074e-05 65L-4.80525e-07 54.0002C-9.88666e-05 24.1767 24.1766 -1.05679e-06 54 -2.36041e-06L64.9998 -2.84123e-06L64.9998 65L3.58074e-05 65Z" fill="#9DCEFF"/>
<path fill-rule="evenodd" clip-rule="evenodd" d="M15.8161 15.8163L64.9998 65L3.58077e-05 65L-4.80525e-07 54.0002C-4.96734e-05 39.0885 6.04408 25.5884 15.8161 15.8163Z" fill="#0085FF"/>
<path fill-rule="evenodd" clip-rule="evenodd" d="M29 29L29 59L59 59L59 29L29 29ZM33 33L33 55L55 55L55 33L33 33Z" fill="white"/>
<path fill-rule="evenodd" clip-rule="evenodd" d="M29.0002 29L29 29L29 59L59 59L59 58.9998L55 54.9998L55 55L33 55L33 33L33.0002 33L29.0002 29Z" fill="#E3E3E4"/>
<path d="M88.5438 23.864H85.3278C84.8478 23.864 84.6558 24.056 84.6558 24.44V58.424C84.6558 58.808 84.8478 59 85.2798 59H103.472C103.856 59 104.048 58.76 104.048 58.424V55.4C104.048 55.016 103.904 54.776 103.472 54.776H89.1678V24.44C89.1678 24.056 89.0238 23.864 88.5438 23.864Z" fill="#0085FF"/>
<path d="M125.628 47.24C126.492 47.24 126.876 46.856 126.876 46.088V42.248C126.876 36.344 123.324 32.168 116.652 32.12C109.836 32.168 106.188 36.344 106.188 42.296V49.352C106.188 55.4 109.932 59.48 116.796 59.528C121.788 59.528 125.1 57.416 126.54 54.104C126.78 53.624 126.732 53.288 126.156 53.048L124.092 51.992C123.564 51.752 123.324 51.752 123.036 52.328C122.076 54.344 120.684 55.832 116.844 55.832C112.668 55.784 110.412 53.528 110.412 49.352V47.24H125.628ZM116.604 35.768C120.492 35.816 122.796 38.12 122.796 42.2V44.168H110.412V42.2C110.412 38.12 112.716 35.816 116.604 35.768Z" fill="#0085FF"/>
<path d="M143.608 22.568H141.112C136.36 22.568 133.72 25.112 133.72 29.864V32.792H129.976C129.64 32.792 129.496 33.032 129.496 33.32V35.864C129.496 36.2 129.64 36.44 129.976 36.44H133.72V58.472C133.72 58.856 134.008 59 134.344 59H137.512C137.8 59 138.088 58.856 138.088 58.472V36.44H146.676C147.012 36.44 147.204 36.248 147.204 35.864V33.32C147.204 33.032 147.06 32.792 146.724 32.792H138.088V29.72C138.088 27.272 139.192 26.168 141.784 26.168H143.704C144.088 26.168 144.28 25.976 144.28 25.592V23.144C144.28 22.808 144.136 22.568 143.608 22.568Z" fill="#0085FF"/>
<path d="M153.163 25.88H150.187C149.707 25.88 149.563 26.12 149.563 26.456V32.792H145.915C145.579 32.792 145.387 32.984 145.387 33.464V35.816C145.387 36.248 145.579 36.44 145.915 36.44H149.515V52.28C149.515 56.456 152.107 59 156.811 59H159.355C159.787 59 159.979 58.808 159.979 58.376V55.688C159.979 55.256 159.739 55.112 159.355 55.112H157.435C155.035 55.112 153.787 54.008 153.787 51.656V36.44H159.403C159.787 36.44 159.979 36.248 159.979 35.816V33.464C159.979 32.984 159.787 32.792 159.403 32.792H153.787V26.456C153.787 26.12 153.643 25.88 153.163 25.88Z" fill="#0085FF"/>
<path d="M175.721 22.568H173.225C168.473 22.568 165.833 25.112 165.833 29.864V32.792H162.089C161.753 32.792 161.609 33.032 161.609 33.32V35.864C161.609 36.2 161.753 36.44 162.089 36.44H165.833V58.472C165.833 58.856 166.121 59 166.457 59H169.625C169.913 59 170.201 58.856 170.201 58.472V36.44H175.865C176.201 36.44 176.393 36.248 176.393 35.864V33.32C176.393 33.032 176.249 32.792 175.913 32.792H170.201V29.72C170.201 27.272 171.305 26.168 173.897 26.168H175.817C176.201 26.168 176.393 25.976 176.393 25.592V23.144C176.393 22.808 176.249 22.568 175.721 22.568ZM185.465 22.568H182.585C182.057 22.568 181.865 22.808 181.865 23.24V27.896C181.865 28.328 182.057 28.568 182.585 28.568H185.465C185.993 28.568 186.185 28.328 186.185 27.896V23.24C186.185 22.808 185.993 22.568 185.465 22.568ZM185.609 32.648H182.489C182.009 32.648 181.865 32.84 181.865 33.224V58.424C181.865 58.808 182.009 59 182.489 59H185.609C186.041 59 186.185 58.808 186.185 58.424V33.224C186.185 32.84 186.041 32.648 185.609 32.648Z" fill="#0085FF"/>
<path d="M211.041 47.24C211.905 47.24 212.289 46.856 212.289 46.088V42.248C212.289 36.344 208.737 32.168 202.065 32.12C195.249 32.168 191.601 36.344 191.601 42.296V49.352C191.601 55.4 195.345 59.48 202.209 59.528C207.201 59.528 210.513 57.416 211.953 54.104C212.193 53.624 212.145 53.288 211.569 53.048L209.505 51.992C208.977 51.752 208.737 51.752 208.449 52.328C207.489 54.344 206.097 55.832 202.257 55.832C198.081 55.784 195.825 53.528 195.825 49.352V47.24H211.041ZM202.017 35.768C205.905 35.816 208.209 38.12 208.209 42.2V44.168H195.825V42.2C195.825 38.12 198.129 35.816 202.017 35.768Z" fill="#0085FF"/>
<path d="M221.194 22.52H218.074C217.594 22.52 217.45 22.712 217.45 23.096V58.424C217.45 58.808 217.594 59 218.074 59H221.194C221.626 59 221.77 58.808 221.77 58.424V23.096C221.77 22.712 221.626 22.52 221.194 22.52Z" fill="#0085FF"/>
<path d="M236.495 59.528C240.335 59.528 243.023 57.512 244.175 55.448V58.472C244.175 58.856 244.463 59 244.751 59H247.823C248.207 59 248.447 58.856 248.447 58.472V23.096C248.447 22.76 248.207 22.568 247.919 22.568H244.607C244.271 22.568 244.079 22.76 244.079 23.096V36.248C242.927 34.184 240.287 32.168 236.351 32.168C230.783 32.168 227.231 36.152 227.231 42.2V49.544C227.231 55.592 230.783 59.48 236.495 59.528ZM237.647 55.592C233.855 55.592 231.599 53.384 231.599 48.968V42.776C231.599 38.408 233.855 36.056 237.647 36.056C241.055 36.056 244.079 38.408 244.079 42.824V48.968C244.079 53.336 241.055 55.592 237.647 55.592Z" fill="#0085FF"/>
</svg>
