<svg width="24" height="24" viewBox="0 0 24 24" fill="none" xmlns="http://www.w3.org/2000/svg">
<path d="M12.1637 18.5102L13.0356 18.0205L12.1637 18.5102ZM11.5781 19.9582L11.2918 19L11.5781 19.9582ZM11.4389 6.249L12.1341 6.9678L11.4389 6.249ZM12.1637 5.48976L13.0356 5.97952L12.1637 5.48976ZM11.5781 4.04183L11.2918 5L11.5781 4.04183ZM10 12C10 10.0246 10.817 8.24172 12.1341 6.9678L10.7437 5.5302C9.05306 7.16533 8 9.46056 8 12H10ZM12.1341 17.0322C10.817 15.7583 10 13.9754 10 12H8C8 14.5394 9.05306 16.8347 10.7437 18.4698L12.1341 17.0322ZM11 19C7.13401 19 4 15.866 4 12H2C2 16.9706 6.02944 21 11 21V19ZM4 12C4 8.13401 7.13401 5 11 5V3C6.02944 3 2 7.02944 2 12H4ZM10.7437 18.4698C10.9664 18.6852 11.1162 18.8303 11.2206 18.9377C11.2719 18.9905 11.3012 19.0229 11.3168 19.0415C11.3356 19.0638 11.3179 19.0463 11.2918 19L13.0356 18.0205C12.9274 17.828 12.7656 17.6578 12.6549 17.5438C12.5236 17.4088 12.3468 17.238 12.1341 17.0322L10.7437 18.4698ZM11 21C11.2361 21 11.5523 21.0095 11.8643 20.9163L11.2918 19C11.3199 18.9916 11.3307 18.994 11.2883 18.9964C11.2332 18.9996 11.1569 19 11 19V21ZM11.2918 19L11.8643 20.9163C13.0923 20.5495 13.6633 19.1379 13.0356 18.0205L11.2918 19ZM12.1341 6.9678C12.3468 6.76203 12.5236 6.59121 12.6549 6.45617C12.7656 6.34225 12.9274 6.17203 13.0356 5.97952L11.2918 5C11.3179 4.95369 11.3356 4.93623 11.3168 4.95852C11.3012 4.97707 11.2719 5.0095 11.2206 5.06226C11.1162 5.16969 10.9664 5.31477 10.7437 5.5302L12.1341 6.9678ZM11 5C11.1569 5 11.2332 5.00038 11.2883 5.00356C11.3307 5.00601 11.3199 5.00838 11.2918 5L11.8643 3.08366C11.5523 2.9905 11.2361 3 11 3V5ZM13.0356 5.97952C13.6633 4.86207 13.0923 3.45049 11.8643 3.08366L11.2918 5L13.0356 5.97952Z" fill="#CCD2E3"/>
</svg>
