<svg width="24" height="24" viewBox="0 0 24 24" fill="none" xmlns="http://www.w3.org/2000/svg">
<path d="M6.5 8C5.94772 8 5.5 8.44772 5.5 9C5.5 9.55228 5.94772 10 6.5 10V8ZM10.5029 5.25722L9.57441 5.62861L10.5029 5.25722ZM10.9029 6.25722L11.8314 5.88583L10.9029 6.25722ZM20 13V16H22V13H20ZM17 19H7V21H17V19ZM4 16V6H2V16H4ZM5 5H8.64593V3H5V5ZM9.57441 5.62861L9.97441 6.62861L11.8314 5.88583L11.4314 4.88583L9.57441 5.62861ZM9.04593 8H6.5V10H9.04593V8ZM6.5 10H17V8H6.5V10ZM8.64593 5C8.99584 5 9.17772 5.0014 9.3063 5.01552C9.41031 5.02694 9.37901 5.03794 9.32297 5L10.4442 3.34387C10.1342 3.13399 9.81201 3.05903 9.52463 3.02747C9.26181 2.9986 8.95183 3 8.64593 3V5ZM11.4314 4.88583C11.3178 4.60181 11.2039 4.31348 11.0795 4.08018C10.9435 3.82508 10.7542 3.55374 10.4442 3.34387L9.32297 5C9.26692 4.96206 9.26552 4.92891 9.31475 5.02124C9.37561 5.13537 9.44446 5.30373 9.57441 5.62861L11.4314 4.88583ZM9.97441 6.62861C10.2352 7.28046 10.3862 7.66518 10.4521 7.94189C10.5133 8.1986 10.44 8.12252 10.523 8L12.1791 9.12126C12.5595 8.55936 12.5107 7.95293 12.3977 7.47845C12.2894 7.02397 12.0677 6.47666 11.8314 5.88583L9.97441 6.62861ZM9.04593 10C9.68228 10 10.2728 10.0026 10.735 9.93434C11.2175 9.86306 11.7987 9.68315 12.1791 9.12126L10.523 8C10.6059 7.87748 10.7038 7.91725 10.4427 7.95581C10.1613 7.99738 9.748 8 9.04593 8V10ZM7 19C6.02892 19 5.40121 18.9979 4.9387 18.9357C4.50496 18.8774 4.36902 18.7832 4.29289 18.7071L2.87868 20.1213C3.38834 20.631 4.01669 20.8297 4.67221 20.9179C5.29896 21.0021 6.08546 21 7 21V19ZM2 16C2 16.9145 1.99788 17.701 2.08214 18.3278C2.17027 18.9833 2.36902 19.6117 2.87868 20.1213L4.29289 18.7071C4.21677 18.631 4.12262 18.495 4.06431 18.0613C4.00212 17.5988 4 16.9711 4 16H2ZM20 16C20 16.9711 19.9979 17.5988 19.9357 18.0613C19.8774 18.495 19.7832 18.631 19.7071 18.7071L21.1213 20.1213C21.631 19.6117 21.8297 18.9833 21.9179 18.3278C22.0021 17.701 22 16.9145 22 16H20ZM17 21C17.9145 21 18.701 21.0021 19.3278 20.9179C19.9833 20.8297 20.6117 20.631 21.1213 20.1213L19.7071 18.7071C19.631 18.7832 19.495 18.8774 19.0613 18.9357C18.5988 18.9979 17.9711 19 17 19V21ZM22 13C22 12.0855 22.0021 11.299 21.9179 10.6722C21.8297 10.0167 21.631 9.38834 21.1213 8.87868L19.7071 10.2929C19.7832 10.369 19.8774 10.505 19.9357 10.9387C19.9979 11.4012 20 12.0289 20 13H22ZM17 10C17.9711 10 18.5988 10.0021 19.0613 10.0643C19.495 10.1226 19.631 10.2168 19.7071 10.2929L21.1213 8.87868C20.6117 8.36902 19.9833 8.17027 19.3278 8.08214C18.701 7.99788 17.9145 8 17 8V10ZM4 6C4 5.50033 4.00212 5.22617 4.02769 5.03598C4.0494 4.87455 4.07032 4.92968 4 5L2.58579 3.58579C2.22257 3.949 2.09705 4.38628 2.04553 4.76948C1.99788 5.12392 2 5.55687 2 6H4ZM5 3C4.55687 3 4.12392 2.99788 3.76948 3.04553C3.38628 3.09705 2.949 3.22257 2.58579 3.58579L4 5C3.92968 5.07032 3.87455 5.0494 4.03598 5.02769C4.22617 5.00212 4.50033 5 5 5V3Z" fill="#CCD2E3"/>
</svg>
