<svg width="24" height="24" viewBox="0 0 24 24" fill="none" xmlns="http://www.w3.org/2000/svg">
<path fill-rule="evenodd" clip-rule="evenodd" d="M12 1.48459C11.3426 1.48459 10.7706 1.90617 9.6267 2.74933L7.90579 4.01778C7.72558 4.15061 7.63548 4.21702 7.53874 4.27288C7.44201 4.32873 7.33944 4.37355 7.1343 4.4632L5.17533 5.31932C3.87318 5.8884 3.22211 6.17294 2.89339 6.74229C2.56467 7.31165 2.64379 8.01777 2.80203 9.43L3.04009 11.5546C3.06502 11.7771 3.07748 11.8883 3.07748 12C3.07748 12.1117 3.06502 12.2229 3.04009 12.4454L2.80203 14.57C2.64379 15.9822 2.56467 16.6883 2.89339 17.2577C3.22211 17.8271 3.87318 18.1116 5.17533 18.6807L7.1343 19.5368C7.33944 19.6264 7.44201 19.6713 7.53874 19.7271C7.63548 19.783 7.72558 19.8494 7.90579 19.9822L9.6267 21.2507C10.7706 22.0938 11.3426 22.5154 12 22.5154C12.6574 22.5154 13.2294 22.0938 14.3733 21.2507L14.3733 21.2507L16.0942 19.9822C16.2744 19.8494 16.3645 19.783 16.4613 19.7271C16.558 19.6713 16.6606 19.6264 16.8657 19.5368L18.8247 18.6807C20.1268 18.1116 20.7779 17.8271 21.1066 17.2577C21.4353 16.6883 21.3562 15.9822 21.198 14.57L20.9599 12.4454L20.9599 12.4454C20.935 12.2229 20.9225 12.1117 20.9225 12C20.9225 11.8883 20.935 11.7771 20.9599 11.5546L20.9599 11.5546L21.198 9.43001C21.3562 8.01777 21.4353 7.31165 21.1066 6.74229C20.7779 6.17294 20.1268 5.8884 18.8247 5.31932L16.8657 4.4632L16.8657 4.4632C16.6606 4.37355 16.558 4.32872 16.4613 4.27288C16.3645 4.21702 16.2744 4.15061 16.0942 4.01778L14.3733 2.74933C13.2294 1.90617 12.6574 1.48459 12 1.48459ZM12 16C14.2091 16 16 14.2091 16 12C16 9.79086 14.2091 8 12 8C9.79086 8 8 9.79086 8 12C8 14.2091 9.79086 16 12 16Z" fill="white"/>
</svg>
