<svg width="24" height="24" viewBox="0 0 24 24" fill="none" xmlns="http://www.w3.org/2000/svg">
<path fill-rule="evenodd" clip-rule="evenodd" d="M13 16.7531V14H8.81765C7.2009 14 5.83018 15.1888 5.60154 16.7893C5.29859 18.9099 7.095 20.7381 9.2206 20.4724L9.77823 20.4027C11.6188 20.1727 13 18.608 13 16.7531Z" fill="white"/>
<path d="M13 8V7.38851C13 5.77017 13 4.961 13.474 4.40151C13.9479 3.84202 14.7461 3.70899 16.3424 3.44294L18.6991 3.05015C18.8349 3.02752 18.9028 3.0162 18.9395 3.05589C18.9761 3.09557 18.9594 3.16237 18.926 3.29594L18.0307 6.87722C18.0158 6.93689 18.0083 6.96673 17.9874 6.98673C17.9664 7.00673 17.9362 7.01276 17.8759 7.02483L13 8ZM13 8V14M13 14V16.7531C13 18.608 11.6188 20.1727 9.77823 20.4027L9.2206 20.4724C7.095 20.7381 5.29859 18.9099 5.60154 16.7893C5.83018 15.1888 7.2009 14 8.81765 14H13Z" stroke="white" stroke-width="2"/>
</svg>
